<mxfile host="app.diagrams.net" modified="2024-01-03T08:14:00.554Z" agent="Mozilla/5.0 (Windows NT 10.0; Win64; x64) AppleWebKit/537.36 (KHTML, like Gecko) Chrome/120.0.0.0 Safari/537.36" etag="oQnI6QGWQOiKXCAVQEox" version="22.1.16" type="github">
  <diagram name="第 1 页" id="vk-hbot34QUPFmYlUyg8">
    <mxGraphModel dx="2197" dy="1118" grid="1" gridSize="10" guides="1" tooltips="1" connect="1" arrows="1" fold="1" page="0" pageScale="1" pageWidth="827" pageHeight="1169" math="0" shadow="0">
      <root>
        <mxCell id="0" />
        <mxCell id="1" parent="0" />
        <mxCell id="6tOCdl4o00U6S-Jx7d3o-3" value="" style="ellipse;whiteSpace=wrap;html=1;fillColor=#f5f5f5;fontColor=#333333;strokeColor=#666666;" vertex="1" parent="1">
          <mxGeometry x="174.25" y="190" width="600" height="450" as="geometry" />
        </mxCell>
        <mxCell id="6tOCdl4o00U6S-Jx7d3o-1" value="文化背景" style="rounded=1;whiteSpace=wrap;html=1;" vertex="1" parent="1">
          <mxGeometry x="300" y="50" width="408.5" height="130" as="geometry" />
        </mxCell>
        <mxCell id="6tOCdl4o00U6S-Jx7d3o-4" value="人" style="sketch=0;outlineConnect=0;fontColor=#232F3E;gradientColor=none;strokeColor=#232F3E;fillColor=#ffffff;dashed=0;verticalLabelPosition=bottom;verticalAlign=top;align=center;html=1;fontSize=12;fontStyle=0;aspect=fixed;shape=mxgraph.aws4.resourceIcon;resIcon=mxgraph.aws4.user;" vertex="1" parent="1">
          <mxGeometry x="444.25" y="380" width="60" height="60" as="geometry" />
        </mxCell>
        <mxCell id="6tOCdl4o00U6S-Jx7d3o-6" value="基本描述" style="ellipse;whiteSpace=wrap;html=1;" vertex="1" parent="1">
          <mxGeometry x="310" y="300" width="120" height="80" as="geometry" />
        </mxCell>
        <mxCell id="6tOCdl4o00U6S-Jx7d3o-46" style="edgeStyle=none;rounded=0;orthogonalLoop=1;jettySize=auto;html=1;exitX=0;exitY=0.5;exitDx=0;exitDy=0;entryX=1;entryY=0.5;entryDx=0;entryDy=0;" edge="1" parent="1" source="6tOCdl4o00U6S-Jx7d3o-7" target="6tOCdl4o00U6S-Jx7d3o-23">
          <mxGeometry relative="1" as="geometry" />
        </mxCell>
        <mxCell id="6tOCdl4o00U6S-Jx7d3o-47" style="edgeStyle=none;rounded=0;orthogonalLoop=1;jettySize=auto;html=1;exitX=0;exitY=1;exitDx=0;exitDy=0;" edge="1" parent="1" source="6tOCdl4o00U6S-Jx7d3o-7" target="6tOCdl4o00U6S-Jx7d3o-25">
          <mxGeometry relative="1" as="geometry" />
        </mxCell>
        <mxCell id="6tOCdl4o00U6S-Jx7d3o-7" value="饮食" style="ellipse;whiteSpace=wrap;html=1;" vertex="1" parent="1">
          <mxGeometry x="200" y="410" width="120" height="80" as="geometry" />
        </mxCell>
        <mxCell id="6tOCdl4o00U6S-Jx7d3o-62" style="edgeStyle=none;rounded=0;orthogonalLoop=1;jettySize=auto;html=1;exitX=0.5;exitY=1;exitDx=0;exitDy=0;" edge="1" parent="1" source="6tOCdl4o00U6S-Jx7d3o-8" target="6tOCdl4o00U6S-Jx7d3o-26">
          <mxGeometry relative="1" as="geometry" />
        </mxCell>
        <mxCell id="6tOCdl4o00U6S-Jx7d3o-8" value="交通出行" style="ellipse;whiteSpace=wrap;html=1;" vertex="1" parent="1">
          <mxGeometry x="310" y="545" width="120" height="80" as="geometry" />
        </mxCell>
        <mxCell id="6tOCdl4o00U6S-Jx7d3o-65" style="edgeStyle=none;rounded=0;orthogonalLoop=1;jettySize=auto;html=1;exitX=0.5;exitY=1;exitDx=0;exitDy=0;entryX=0;entryY=0;entryDx=0;entryDy=0;" edge="1" parent="1" source="6tOCdl4o00U6S-Jx7d3o-9" target="6tOCdl4o00U6S-Jx7d3o-17">
          <mxGeometry relative="1" as="geometry" />
        </mxCell>
        <mxCell id="6tOCdl4o00U6S-Jx7d3o-66" style="edgeStyle=none;rounded=0;orthogonalLoop=1;jettySize=auto;html=1;exitX=1;exitY=0.5;exitDx=0;exitDy=0;entryX=0;entryY=0;entryDx=0;entryDy=0;" edge="1" parent="1" source="6tOCdl4o00U6S-Jx7d3o-9" target="6tOCdl4o00U6S-Jx7d3o-16">
          <mxGeometry relative="1" as="geometry" />
        </mxCell>
        <mxCell id="6tOCdl4o00U6S-Jx7d3o-9" value="医疗" style="ellipse;whiteSpace=wrap;html=1;" vertex="1" parent="1">
          <mxGeometry x="470" y="530" width="120" height="80" as="geometry" />
        </mxCell>
        <mxCell id="6tOCdl4o00U6S-Jx7d3o-10" value="结构化描述" style="ellipse;whiteSpace=wrap;html=1;" vertex="1" parent="1">
          <mxGeometry x="520" y="360" width="120" height="80" as="geometry" />
        </mxCell>
        <mxCell id="6tOCdl4o00U6S-Jx7d3o-11" value="逻辑表达" style="ellipse;whiteSpace=wrap;html=1;" vertex="1" parent="1">
          <mxGeometry x="430" y="270" width="120" height="80" as="geometry" />
        </mxCell>
        <mxCell id="6tOCdl4o00U6S-Jx7d3o-12" value="常用俚语，俗语" style="ellipse;whiteSpace=wrap;html=1;" vertex="1" parent="1">
          <mxGeometry x="310" y="60" width="120" height="80" as="geometry" />
        </mxCell>
        <mxCell id="6tOCdl4o00U6S-Jx7d3o-13" value="学术，工作" style="ellipse;whiteSpace=wrap;html=1;fillColor=#fff2cc;strokeColor=#d6b656;" vertex="1" parent="1">
          <mxGeometry x="570" y="150" width="160" height="120" as="geometry" />
        </mxCell>
        <mxCell id="6tOCdl4o00U6S-Jx7d3o-14" value="空间，时间，状态&lt;br&gt;语法" style="ellipse;whiteSpace=wrap;html=1;" vertex="1" parent="1">
          <mxGeometry x="610" y="320" width="120" height="80" as="geometry" />
        </mxCell>
        <mxCell id="6tOCdl4o00U6S-Jx7d3o-96" style="edgeStyle=none;rounded=0;orthogonalLoop=1;jettySize=auto;html=1;exitX=0.5;exitY=1;exitDx=0;exitDy=0;" edge="1" parent="1" source="6tOCdl4o00U6S-Jx7d3o-16" target="6tOCdl4o00U6S-Jx7d3o-86">
          <mxGeometry relative="1" as="geometry" />
        </mxCell>
        <mxCell id="6tOCdl4o00U6S-Jx7d3o-16" value="身体器官描述" style="ellipse;whiteSpace=wrap;html=1;" vertex="1" parent="1">
          <mxGeometry x="700" y="720" width="120" height="80" as="geometry" />
        </mxCell>
        <mxCell id="6tOCdl4o00U6S-Jx7d3o-95" style="edgeStyle=none;rounded=0;orthogonalLoop=1;jettySize=auto;html=1;exitX=0.5;exitY=1;exitDx=0;exitDy=0;entryX=0.5;entryY=0;entryDx=0;entryDy=0;" edge="1" parent="1" source="6tOCdl4o00U6S-Jx7d3o-17" target="6tOCdl4o00U6S-Jx7d3o-85">
          <mxGeometry relative="1" as="geometry" />
        </mxCell>
        <mxCell id="6tOCdl4o00U6S-Jx7d3o-17" value="感受表达" style="ellipse;whiteSpace=wrap;html=1;" vertex="1" parent="1">
          <mxGeometry x="560" y="780" width="120" height="80" as="geometry" />
        </mxCell>
        <mxCell id="6tOCdl4o00U6S-Jx7d3o-64" style="edgeStyle=none;rounded=0;orthogonalLoop=1;jettySize=auto;html=1;exitX=0.5;exitY=1;exitDx=0;exitDy=0;" edge="1" parent="1" source="6tOCdl4o00U6S-Jx7d3o-18" target="6tOCdl4o00U6S-Jx7d3o-20">
          <mxGeometry relative="1" as="geometry" />
        </mxCell>
        <mxCell id="6tOCdl4o00U6S-Jx7d3o-18" value="运输工具名称" style="ellipse;whiteSpace=wrap;html=1;" vertex="1" parent="1">
          <mxGeometry x="310" y="700" width="120" height="80" as="geometry" />
        </mxCell>
        <mxCell id="6tOCdl4o00U6S-Jx7d3o-19" value="乘客视角" style="ellipse;whiteSpace=wrap;html=1;" vertex="1" parent="1">
          <mxGeometry x="80" y="790" width="120" height="80" as="geometry" />
        </mxCell>
        <mxCell id="6tOCdl4o00U6S-Jx7d3o-20" value="司机视角" style="ellipse;whiteSpace=wrap;html=1;" vertex="1" parent="1">
          <mxGeometry x="280" y="840" width="120" height="80" as="geometry" />
        </mxCell>
        <mxCell id="6tOCdl4o00U6S-Jx7d3o-60" style="edgeStyle=none;rounded=0;orthogonalLoop=1;jettySize=auto;html=1;entryX=1;entryY=0.5;entryDx=0;entryDy=0;" edge="1" parent="1" source="6tOCdl4o00U6S-Jx7d3o-22" target="6tOCdl4o00U6S-Jx7d3o-54">
          <mxGeometry relative="1" as="geometry" />
        </mxCell>
        <mxCell id="6tOCdl4o00U6S-Jx7d3o-61" style="edgeStyle=none;rounded=0;orthogonalLoop=1;jettySize=auto;html=1;exitX=0;exitY=1;exitDx=0;exitDy=0;entryX=1;entryY=0.5;entryDx=0;entryDy=0;" edge="1" parent="1" source="6tOCdl4o00U6S-Jx7d3o-22" target="6tOCdl4o00U6S-Jx7d3o-56">
          <mxGeometry relative="1" as="geometry" />
        </mxCell>
        <mxCell id="6tOCdl4o00U6S-Jx7d3o-22" value="餐厅场景" style="ellipse;whiteSpace=wrap;html=1;" vertex="1" parent="1">
          <mxGeometry x="-210" y="420" width="120" height="80" as="geometry" />
        </mxCell>
        <mxCell id="6tOCdl4o00U6S-Jx7d3o-48" style="edgeStyle=none;rounded=0;orthogonalLoop=1;jettySize=auto;html=1;exitX=0;exitY=0.5;exitDx=0;exitDy=0;" edge="1" parent="1" source="6tOCdl4o00U6S-Jx7d3o-23" target="6tOCdl4o00U6S-Jx7d3o-22">
          <mxGeometry relative="1" as="geometry" />
        </mxCell>
        <mxCell id="6tOCdl4o00U6S-Jx7d3o-23" value="食物名称" style="ellipse;whiteSpace=wrap;html=1;" vertex="1" parent="1">
          <mxGeometry x="-20" y="420" width="120" height="80" as="geometry" />
        </mxCell>
        <mxCell id="6tOCdl4o00U6S-Jx7d3o-58" style="edgeStyle=none;rounded=0;orthogonalLoop=1;jettySize=auto;html=1;exitX=0;exitY=1;exitDx=0;exitDy=0;" edge="1" parent="1" source="6tOCdl4o00U6S-Jx7d3o-24" target="6tOCdl4o00U6S-Jx7d3o-50">
          <mxGeometry relative="1" as="geometry" />
        </mxCell>
        <mxCell id="6tOCdl4o00U6S-Jx7d3o-59" style="edgeStyle=none;rounded=0;orthogonalLoop=1;jettySize=auto;html=1;exitX=0.5;exitY=1;exitDx=0;exitDy=0;" edge="1" parent="1" source="6tOCdl4o00U6S-Jx7d3o-24" target="6tOCdl4o00U6S-Jx7d3o-53">
          <mxGeometry relative="1" as="geometry" />
        </mxCell>
        <mxCell id="6tOCdl4o00U6S-Jx7d3o-24" value="家庭场景" style="ellipse;whiteSpace=wrap;html=1;" vertex="1" parent="1">
          <mxGeometry x="-180" y="570" width="120" height="80" as="geometry" />
        </mxCell>
        <mxCell id="6tOCdl4o00U6S-Jx7d3o-25" value="餐具名称" style="ellipse;whiteSpace=wrap;html=1;" vertex="1" parent="1">
          <mxGeometry x="10" y="490" width="120" height="80" as="geometry" />
        </mxCell>
        <mxCell id="6tOCdl4o00U6S-Jx7d3o-63" style="edgeStyle=none;rounded=0;orthogonalLoop=1;jettySize=auto;html=1;exitX=0;exitY=1;exitDx=0;exitDy=0;" edge="1" parent="1" source="6tOCdl4o00U6S-Jx7d3o-26" target="6tOCdl4o00U6S-Jx7d3o-19">
          <mxGeometry relative="1" as="geometry" />
        </mxCell>
        <mxCell id="6tOCdl4o00U6S-Jx7d3o-26" value="交通设备名称" style="ellipse;whiteSpace=wrap;html=1;" vertex="1" parent="1">
          <mxGeometry x="220" y="660" width="120" height="80" as="geometry" />
        </mxCell>
        <mxCell id="6tOCdl4o00U6S-Jx7d3o-27" style="edgeStyle=none;rounded=0;orthogonalLoop=1;jettySize=auto;html=1;exitX=1;exitY=1;exitDx=0;exitDy=0;" edge="1" parent="1" source="6tOCdl4o00U6S-Jx7d3o-18" target="6tOCdl4o00U6S-Jx7d3o-18">
          <mxGeometry relative="1" as="geometry" />
        </mxCell>
        <mxCell id="6tOCdl4o00U6S-Jx7d3o-34" style="edgeStyle=none;rounded=0;orthogonalLoop=1;jettySize=auto;html=1;exitX=0.5;exitY=0;exitDx=0;exitDy=0;" edge="1" parent="1" source="6tOCdl4o00U6S-Jx7d3o-28" target="6tOCdl4o00U6S-Jx7d3o-29">
          <mxGeometry relative="1" as="geometry" />
        </mxCell>
        <mxCell id="6tOCdl4o00U6S-Jx7d3o-35" style="edgeStyle=none;rounded=0;orthogonalLoop=1;jettySize=auto;html=1;exitX=0;exitY=0.5;exitDx=0;exitDy=0;" edge="1" parent="1" source="6tOCdl4o00U6S-Jx7d3o-28" target="6tOCdl4o00U6S-Jx7d3o-30">
          <mxGeometry relative="1" as="geometry" />
        </mxCell>
        <mxCell id="6tOCdl4o00U6S-Jx7d3o-41" style="edgeStyle=none;rounded=0;orthogonalLoop=1;jettySize=auto;html=1;exitX=0.5;exitY=0;exitDx=0;exitDy=0;" edge="1" parent="1" source="6tOCdl4o00U6S-Jx7d3o-28" target="6tOCdl4o00U6S-Jx7d3o-40">
          <mxGeometry relative="1" as="geometry" />
        </mxCell>
        <mxCell id="6tOCdl4o00U6S-Jx7d3o-28" value="服饰，外貌" style="ellipse;whiteSpace=wrap;html=1;" vertex="1" parent="1">
          <mxGeometry x="210" y="270" width="120" height="80" as="geometry" />
        </mxCell>
        <mxCell id="6tOCdl4o00U6S-Jx7d3o-36" style="edgeStyle=none;rounded=0;orthogonalLoop=1;jettySize=auto;html=1;exitX=0;exitY=0;exitDx=0;exitDy=0;entryX=1;entryY=1;entryDx=0;entryDy=0;" edge="1" parent="1" source="6tOCdl4o00U6S-Jx7d3o-29" target="6tOCdl4o00U6S-Jx7d3o-31">
          <mxGeometry relative="1" as="geometry" />
        </mxCell>
        <mxCell id="6tOCdl4o00U6S-Jx7d3o-29" value="内搭" style="ellipse;whiteSpace=wrap;html=1;" vertex="1" parent="1">
          <mxGeometry x="110" y="160" width="120" height="80" as="geometry" />
        </mxCell>
        <mxCell id="6tOCdl4o00U6S-Jx7d3o-38" style="edgeStyle=none;rounded=0;orthogonalLoop=1;jettySize=auto;html=1;exitX=0;exitY=0;exitDx=0;exitDy=0;" edge="1" parent="1" source="6tOCdl4o00U6S-Jx7d3o-30" target="6tOCdl4o00U6S-Jx7d3o-32">
          <mxGeometry relative="1" as="geometry" />
        </mxCell>
        <mxCell id="6tOCdl4o00U6S-Jx7d3o-30" value="外穿" style="ellipse;whiteSpace=wrap;html=1;" vertex="1" parent="1">
          <mxGeometry x="50" y="220" width="120" height="80" as="geometry" />
        </mxCell>
        <mxCell id="6tOCdl4o00U6S-Jx7d3o-31" value="服装形状" style="ellipse;whiteSpace=wrap;html=1;" vertex="1" parent="1">
          <mxGeometry x="-60" y="50" width="120" height="80" as="geometry" />
        </mxCell>
        <mxCell id="6tOCdl4o00U6S-Jx7d3o-32" value="服装材质" style="ellipse;whiteSpace=wrap;html=1;" vertex="1" parent="1">
          <mxGeometry x="-120" y="200" width="120" height="80" as="geometry" />
        </mxCell>
        <mxCell id="6tOCdl4o00U6S-Jx7d3o-33" value="服装尺寸" style="ellipse;whiteSpace=wrap;html=1;" vertex="1" parent="1">
          <mxGeometry x="-130" y="110" width="120" height="80" as="geometry" />
        </mxCell>
        <mxCell id="6tOCdl4o00U6S-Jx7d3o-37" style="edgeStyle=none;rounded=0;orthogonalLoop=1;jettySize=auto;html=1;exitX=0;exitY=0.5;exitDx=0;exitDy=0;entryX=0.955;entryY=0.698;entryDx=0;entryDy=0;entryPerimeter=0;" edge="1" parent="1" source="6tOCdl4o00U6S-Jx7d3o-29" target="6tOCdl4o00U6S-Jx7d3o-33">
          <mxGeometry relative="1" as="geometry" />
        </mxCell>
        <mxCell id="6tOCdl4o00U6S-Jx7d3o-57" style="edgeStyle=none;rounded=0;orthogonalLoop=1;jettySize=auto;html=1;exitX=0.5;exitY=0;exitDx=0;exitDy=0;" edge="1" parent="1" source="6tOCdl4o00U6S-Jx7d3o-40" target="6tOCdl4o00U6S-Jx7d3o-44">
          <mxGeometry relative="1" as="geometry" />
        </mxCell>
        <mxCell id="6tOCdl4o00U6S-Jx7d3o-40" value="人体结构描述" style="ellipse;whiteSpace=wrap;html=1;" vertex="1" parent="1">
          <mxGeometry x="130" y="10" width="120" height="80" as="geometry" />
        </mxCell>
        <mxCell id="6tOCdl4o00U6S-Jx7d3o-42" value="头部" style="ellipse;whiteSpace=wrap;html=1;" vertex="1" parent="1">
          <mxGeometry x="20" y="-250" width="120" height="80" as="geometry" />
        </mxCell>
        <mxCell id="6tOCdl4o00U6S-Jx7d3o-43" value="躯干" style="ellipse;whiteSpace=wrap;html=1;" vertex="1" parent="1">
          <mxGeometry x="20" y="-180" width="120" height="80" as="geometry" />
        </mxCell>
        <mxCell id="6tOCdl4o00U6S-Jx7d3o-44" value="腿脚" style="ellipse;whiteSpace=wrap;html=1;" vertex="1" parent="1">
          <mxGeometry x="20" y="-100" width="120" height="80" as="geometry" />
        </mxCell>
        <mxCell id="6tOCdl4o00U6S-Jx7d3o-49" style="edgeStyle=none;rounded=0;orthogonalLoop=1;jettySize=auto;html=1;exitX=0;exitY=1;exitDx=0;exitDy=0;entryX=1.019;entryY=0.363;entryDx=0;entryDy=0;entryPerimeter=0;" edge="1" parent="1" source="6tOCdl4o00U6S-Jx7d3o-25" target="6tOCdl4o00U6S-Jx7d3o-24">
          <mxGeometry relative="1" as="geometry" />
        </mxCell>
        <mxCell id="6tOCdl4o00U6S-Jx7d3o-50" value="进入" style="ellipse;whiteSpace=wrap;html=1;" vertex="1" parent="1">
          <mxGeometry x="-490" y="690" width="120" height="80" as="geometry" />
        </mxCell>
        <mxCell id="6tOCdl4o00U6S-Jx7d3o-51" value="点餐" style="ellipse;whiteSpace=wrap;html=1;" vertex="1" parent="1">
          <mxGeometry x="-430" y="750" width="120" height="80" as="geometry" />
        </mxCell>
        <mxCell id="6tOCdl4o00U6S-Jx7d3o-52" value="服务对话" style="ellipse;whiteSpace=wrap;html=1;" vertex="1" parent="1">
          <mxGeometry x="-370" y="820" width="120" height="80" as="geometry" />
        </mxCell>
        <mxCell id="6tOCdl4o00U6S-Jx7d3o-53" value="付钱离开" style="ellipse;whiteSpace=wrap;html=1;" vertex="1" parent="1">
          <mxGeometry x="-320" y="870" width="120" height="80" as="geometry" />
        </mxCell>
        <mxCell id="6tOCdl4o00U6S-Jx7d3o-54" value="互动" style="ellipse;whiteSpace=wrap;html=1;" vertex="1" parent="1">
          <mxGeometry x="-440" y="360" width="120" height="80" as="geometry" />
        </mxCell>
        <mxCell id="6tOCdl4o00U6S-Jx7d3o-55" value="介绍菜谱" style="ellipse;whiteSpace=wrap;html=1;" vertex="1" parent="1">
          <mxGeometry x="-430" y="440" width="120" height="80" as="geometry" />
        </mxCell>
        <mxCell id="6tOCdl4o00U6S-Jx7d3o-56" value="祈使内容" style="ellipse;whiteSpace=wrap;html=1;" vertex="1" parent="1">
          <mxGeometry x="-420" y="520" width="120" height="80" as="geometry" />
        </mxCell>
        <mxCell id="6tOCdl4o00U6S-Jx7d3o-70" style="edgeStyle=none;rounded=0;orthogonalLoop=1;jettySize=auto;html=1;exitX=1;exitY=0;exitDx=0;exitDy=0;" edge="1" parent="1" source="6tOCdl4o00U6S-Jx7d3o-67" target="6tOCdl4o00U6S-Jx7d3o-68">
          <mxGeometry relative="1" as="geometry" />
        </mxCell>
        <mxCell id="6tOCdl4o00U6S-Jx7d3o-84" style="edgeStyle=none;rounded=0;orthogonalLoop=1;jettySize=auto;html=1;exitX=0.5;exitY=1;exitDx=0;exitDy=0;entryX=0;entryY=0.5;entryDx=0;entryDy=0;" edge="1" parent="1" source="6tOCdl4o00U6S-Jx7d3o-67" target="6tOCdl4o00U6S-Jx7d3o-83">
          <mxGeometry relative="1" as="geometry" />
        </mxCell>
        <mxCell id="6tOCdl4o00U6S-Jx7d3o-67" value="居住" style="ellipse;whiteSpace=wrap;html=1;" vertex="1" parent="1">
          <mxGeometry x="600" y="450" width="120" height="80" as="geometry" />
        </mxCell>
        <mxCell id="6tOCdl4o00U6S-Jx7d3o-74" style="edgeStyle=none;rounded=0;orthogonalLoop=1;jettySize=auto;html=1;entryX=0;entryY=0.5;entryDx=0;entryDy=0;" edge="1" parent="1" source="6tOCdl4o00U6S-Jx7d3o-68" target="6tOCdl4o00U6S-Jx7d3o-97">
          <mxGeometry relative="1" as="geometry" />
        </mxCell>
        <mxCell id="6tOCdl4o00U6S-Jx7d3o-101" style="edgeStyle=none;rounded=0;orthogonalLoop=1;jettySize=auto;html=1;exitX=1;exitY=0;exitDx=0;exitDy=0;" edge="1" parent="1" source="6tOCdl4o00U6S-Jx7d3o-68" target="6tOCdl4o00U6S-Jx7d3o-98">
          <mxGeometry relative="1" as="geometry" />
        </mxCell>
        <mxCell id="6tOCdl4o00U6S-Jx7d3o-68" value="房屋结构" style="ellipse;whiteSpace=wrap;html=1;" vertex="1" parent="1">
          <mxGeometry x="790" y="420" width="120" height="80" as="geometry" />
        </mxCell>
        <mxCell id="6tOCdl4o00U6S-Jx7d3o-75" style="edgeStyle=none;rounded=0;orthogonalLoop=1;jettySize=auto;html=1;exitX=1;exitY=0.5;exitDx=0;exitDy=0;" edge="1" parent="1" source="6tOCdl4o00U6S-Jx7d3o-69" target="6tOCdl4o00U6S-Jx7d3o-73">
          <mxGeometry relative="1" as="geometry" />
        </mxCell>
        <mxCell id="6tOCdl4o00U6S-Jx7d3o-69" value="家具操作表达" style="ellipse;whiteSpace=wrap;html=1;" vertex="1" parent="1">
          <mxGeometry x="780" y="500" width="120" height="80" as="geometry" />
        </mxCell>
        <mxCell id="6tOCdl4o00U6S-Jx7d3o-71" style="edgeStyle=none;rounded=0;orthogonalLoop=1;jettySize=auto;html=1;exitX=1;exitY=1;exitDx=0;exitDy=0;entryX=0.043;entryY=0.269;entryDx=0;entryDy=0;entryPerimeter=0;" edge="1" parent="1" source="6tOCdl4o00U6S-Jx7d3o-67" target="6tOCdl4o00U6S-Jx7d3o-69">
          <mxGeometry relative="1" as="geometry" />
        </mxCell>
        <mxCell id="6tOCdl4o00U6S-Jx7d3o-72" value="居家场景" style="ellipse;whiteSpace=wrap;html=1;" vertex="1" parent="1">
          <mxGeometry x="1120" y="500" width="120" height="80" as="geometry" />
        </mxCell>
        <mxCell id="6tOCdl4o00U6S-Jx7d3o-81" style="edgeStyle=none;rounded=0;orthogonalLoop=1;jettySize=auto;html=1;exitX=0.5;exitY=1;exitDx=0;exitDy=0;" edge="1" parent="1" source="6tOCdl4o00U6S-Jx7d3o-73" target="6tOCdl4o00U6S-Jx7d3o-76">
          <mxGeometry relative="1" as="geometry" />
        </mxCell>
        <mxCell id="6tOCdl4o00U6S-Jx7d3o-82" style="edgeStyle=none;rounded=0;orthogonalLoop=1;jettySize=auto;html=1;exitX=1;exitY=0.5;exitDx=0;exitDy=0;entryX=0;entryY=0;entryDx=0;entryDy=0;" edge="1" parent="1" source="6tOCdl4o00U6S-Jx7d3o-73" target="6tOCdl4o00U6S-Jx7d3o-78">
          <mxGeometry relative="1" as="geometry" />
        </mxCell>
        <mxCell id="6tOCdl4o00U6S-Jx7d3o-73" value="外出旅行" style="ellipse;whiteSpace=wrap;html=1;" vertex="1" parent="1">
          <mxGeometry x="980" y="590" width="120" height="80" as="geometry" />
        </mxCell>
        <mxCell id="6tOCdl4o00U6S-Jx7d3o-76" value="酒店预约" style="ellipse;whiteSpace=wrap;html=1;" vertex="1" parent="1">
          <mxGeometry x="1030" y="690" width="120" height="80" as="geometry" />
        </mxCell>
        <mxCell id="6tOCdl4o00U6S-Jx7d3o-78" value="酒店离店" style="ellipse;whiteSpace=wrap;html=1;" vertex="1" parent="1">
          <mxGeometry x="1380" y="620" width="120" height="80" as="geometry" />
        </mxCell>
        <mxCell id="6tOCdl4o00U6S-Jx7d3o-79" value="酒店入住手续" style="ellipse;whiteSpace=wrap;html=1;" vertex="1" parent="1">
          <mxGeometry x="1170" y="690" width="120" height="80" as="geometry" />
        </mxCell>
        <mxCell id="6tOCdl4o00U6S-Jx7d3o-80" value="酒店居住服务" style="ellipse;whiteSpace=wrap;html=1;" vertex="1" parent="1">
          <mxGeometry x="1290" y="670" width="120" height="80" as="geometry" />
        </mxCell>
        <mxCell id="6tOCdl4o00U6S-Jx7d3o-83" value="家具状态表达" style="ellipse;whiteSpace=wrap;html=1;" vertex="1" parent="1">
          <mxGeometry x="760" y="560" width="120" height="80" as="geometry" />
        </mxCell>
        <mxCell id="6tOCdl4o00U6S-Jx7d3o-85" value="门诊" style="ellipse;whiteSpace=wrap;html=1;" vertex="1" parent="1">
          <mxGeometry x="530" y="940" width="120" height="80" as="geometry" />
        </mxCell>
        <mxCell id="6tOCdl4o00U6S-Jx7d3o-86" value="急救" style="ellipse;whiteSpace=wrap;html=1;" vertex="1" parent="1">
          <mxGeometry x="730" y="880" width="120" height="80" as="geometry" />
        </mxCell>
        <mxCell id="6tOCdl4o00U6S-Jx7d3o-87" value="挂号" style="ellipse;whiteSpace=wrap;html=1;" vertex="1" parent="1">
          <mxGeometry x="430" y="1060" width="120" height="80" as="geometry" />
        </mxCell>
        <mxCell id="6tOCdl4o00U6S-Jx7d3o-89" value="就诊对话" style="ellipse;whiteSpace=wrap;html=1;" vertex="1" parent="1">
          <mxGeometry x="550" y="1070" width="120" height="80" as="geometry" />
        </mxCell>
        <mxCell id="6tOCdl4o00U6S-Jx7d3o-90" value="取药" style="ellipse;whiteSpace=wrap;html=1;" vertex="1" parent="1">
          <mxGeometry x="440" y="1130" width="120" height="80" as="geometry" />
        </mxCell>
        <mxCell id="6tOCdl4o00U6S-Jx7d3o-91" value="付费" style="ellipse;whiteSpace=wrap;html=1;" vertex="1" parent="1">
          <mxGeometry x="560" y="1150" width="120" height="80" as="geometry" />
        </mxCell>
        <mxCell id="6tOCdl4o00U6S-Jx7d3o-92" value="手术" style="ellipse;whiteSpace=wrap;html=1;" vertex="1" parent="1">
          <mxGeometry x="670" y="1090" width="120" height="80" as="geometry" />
        </mxCell>
        <mxCell id="6tOCdl4o00U6S-Jx7d3o-93" value="住院" style="ellipse;whiteSpace=wrap;html=1;" vertex="1" parent="1">
          <mxGeometry x="680" y="1170" width="120" height="80" as="geometry" />
        </mxCell>
        <mxCell id="6tOCdl4o00U6S-Jx7d3o-94" value="其他治疗方式" style="ellipse;whiteSpace=wrap;html=1;" vertex="1" parent="1">
          <mxGeometry x="540" y="1220" width="120" height="80" as="geometry" />
        </mxCell>
        <mxCell id="6tOCdl4o00U6S-Jx7d3o-97" value="卧室" style="ellipse;whiteSpace=wrap;html=1;" vertex="1" parent="1">
          <mxGeometry x="970" y="260" width="120" height="80" as="geometry" />
        </mxCell>
        <mxCell id="6tOCdl4o00U6S-Jx7d3o-98" value="客厅" style="ellipse;whiteSpace=wrap;html=1;" vertex="1" parent="1">
          <mxGeometry x="990" y="330" width="120" height="80" as="geometry" />
        </mxCell>
        <mxCell id="6tOCdl4o00U6S-Jx7d3o-99" value="厨房" style="ellipse;whiteSpace=wrap;html=1;" vertex="1" parent="1">
          <mxGeometry x="1020" y="400" width="120" height="80" as="geometry" />
        </mxCell>
        <mxCell id="6tOCdl4o00U6S-Jx7d3o-102" style="edgeStyle=none;rounded=0;orthogonalLoop=1;jettySize=auto;html=1;exitX=1;exitY=0.5;exitDx=0;exitDy=0;entryX=0.02;entryY=0.639;entryDx=0;entryDy=0;entryPerimeter=0;" edge="1" parent="1" source="6tOCdl4o00U6S-Jx7d3o-68" target="6tOCdl4o00U6S-Jx7d3o-99">
          <mxGeometry relative="1" as="geometry" />
        </mxCell>
      </root>
    </mxGraphModel>
  </diagram>
</mxfile>
